<?xml version="1.0" encoding="utf-8"?>
<!-- Generator: Adobe Illustrator 24.2.0, SVG Export Plug-In . SVG Version: 6.00 Build 0)  -->
<svg version="1.1" id="Layer_1" xmlns="http://www.w3.org/2000/svg" xmlns:xlink="http://www.w3.org/1999/xlink" x="0px" y="0px"
	 viewBox="0 0 1402.45 818.97" style="enable-background:new 0 0 1402.45 818.97;" xml:space="preserve">
<style type="text/css">
	.st0{clip-path:url(#SVGID_2_);fill:#364C9F;}
	.st1{fill:#384D97;}
</style>
<g>
	<g>
		<defs>
			<rect id="SVGID_1_" x="176.61" y="183.01" width="1078.53" height="424.59"/>
		</defs>
		<clipPath id="SVGID_2_">
			<use xlink:href="#SVGID_1_"  style="overflow:visible;"/>
		</clipPath>
		<path class="st0" d="M721.67,187.54c0,0-453.74,32.43-453.74,234.42c0,216.44,749.44,107.03,987.22,5.87
			c0,0-264.89,168.78-740.79,181.67c0,0-342.91,4.68-337.69-174.64C181.89,255.52,520.89,160.58,721.67,187.54"/>
	</g>
	<g>
		<path d="M444.1,439.52l28.69-130.17h22.83l-28.68,130.17H444.1z"/>
		<path d="M492.53,418.05l14.64-16.78c8.97,12.3,25.36,20.3,43.52,20.3c16.59,0,23.42-10.15,23.42-18.74
			c0-21.27-63.81-17.37-63.81-55.04c0-20.88,18.93-40.4,48.78-40.4c20.5,0,39.23,7.81,49.77,20.88l-14.64,16.2
			c-9.17-11.51-24.58-16.98-38.25-16.98c-12.29,0-21.46,7.81-21.46,16.59c0,19.71,64.01,16.98,64.01,54.64
			c0,22.44-18.15,43.13-49.77,43.13C524.15,441.86,502.68,431.91,492.53,418.05z"/>
		<path d="M621.03,397.36c0-3.12,0.59-7.22,0.97-9.17l17.37-78.84h23.03l-17.17,78.26c-0.39,1.37-0.78,4.1-0.78,7.22
			c0,15.03,10.74,26.93,30.64,26.93c21.67,0,32.01-13.47,36.5-34.15l17.36-78.26h23.04L734.62,388
			c-7.03,31.81-22.64,53.86-59.53,53.86C639.96,441.86,621.03,424.1,621.03,397.36z"/>
		<path class="st1" d="M799,439.52l36.08-164.1h-58.78l6.69-29.96h151.59l-6.69,29.96h-58.77l-36.08,164.1H799z"/>
		<path class="st1" d="M926.65,356.89c0-69.25,52.66-114.64,111.15-114.64c43.64,0,70.99,22.41,83.2,50.92l-32.59,11.64
			c-9.31-21.53-29.09-32.3-52.37-32.3c-38.7,0-73.9,34.04-73.9,82.34c0,33.75,22.99,57.9,59.36,57.9c17.16,0,35.5-8.15,48.29-22.11
			l25.9,18.04c-21.53,25.6-51.5,34.33-76.24,34.33C966.8,443.01,926.65,409.26,926.65,356.89z"/>
	</g>
</g>
</svg>
